<svg width="1366" height="206" viewBox="0 0 1366 206" fill="none" xmlns="http://www.w3.org/2000/svg">
<path fill-rule="evenodd" clip-rule="evenodd" d="M1366 0.952881C1335.73 17.3811 1301.25 45.8065 1262.36 91.1976C1152.05 219.93 1039.75 168.885 931.522 119.688C848.813 82.0928 768.478 45.5767 693.224 91.1976C683.222 97.2613 672.735 104.133 661.708 111.357C573.03 169.46 449.473 250.415 262.85 117.872C53.0213 -31.152 0 70.2333 0 70.2333V206H1366V0.952881Z" fill="#2D34DF"/>
<path fill-rule="evenodd" clip-rule="evenodd" d="M1366 105.977C1260.97 211.893 1154.41 163.455 1051.52 116.688C968.813 79.0927 888.478 42.5767 813.224 88.1976C803.222 94.2613 792.735 101.133 781.708 108.357C693.03 166.46 569.473 247.415 382.85 114.872C173.021 -34.1521 120 67.2333 120 67.2333V203H1366V105.977Z" fill="#2D34DF" fill-opacity="0.31"/>
</svg>
