<svg width="21" height="24" viewBox="0 0 21 24" fill="none" xmlns="http://www.w3.org/2000/svg">
<path d="M14.1522 9.3913C14.4042 9.3913 14.6087 9.15754 14.6087 8.86954V2.60868C14.6087 1.17078 13.5852 0 12.3261 0H2.28259C1.02354 0 0 1.17078 0 2.60868V21.3913C0 22.8292 1.02354 23.9999 2.28259 23.9999H12.3261C13.5852 23.9999 14.6087 22.8292 14.6087 21.3913V15.1304C14.6087 14.8424 14.4041 14.6087 14.1521 14.6087C13.9001 14.6087 13.6956 14.8424 13.6956 15.1304V21.3913C13.6956 22.2542 13.0812 22.9565 12.3261 22.9565H2.28259C1.52749 22.9565 0.913029 22.2542 0.913029 21.3913V2.60868C0.913029 1.74571 1.52749 1.04346 2.28259 1.04346H12.3261C13.0812 1.04346 13.6956 1.74571 13.6956 2.60868V8.86954C13.6956 9.15754 13.9002 9.3913 14.1522 9.3913Z" fill="black"/>
<path d="M20.5435 11.4783H5.93481C5.68281 11.4783 5.47827 11.712 5.47827 12C5.47827 12.288 5.68281 12.5217 5.93481 12.5217H20.5435C20.7955 12.5217 21 12.288 21 12C21 11.712 20.7955 11.4783 20.5435 11.4783Z" fill="black"/>
<path d="M20.8659 11.6326L18.1267 8.50222C17.9487 8.29874 17.6592 8.29874 17.4812 8.50222C17.3031 8.7057 17.3031 9.03649 17.4812 9.23997L19.8971 12.001L17.4812 14.7621C17.3031 14.9655 17.3031 15.2963 17.4812 15.4998C17.5707 15.601 17.6875 15.6522 17.8044 15.6522C17.9213 15.6522 18.0381 15.6011 18.1267 15.5009L20.8659 12.3705C21.0439 12.1669 21.0439 11.8361 20.8659 11.6326Z" fill="black"/>
</svg>
