<svg width="45" height="40" viewBox="0 0 45 40" fill="none" xmlns="http://www.w3.org/2000/svg">
<path d="M41.5824 13.4477C41.7226 12.7796 41.7936 12.1015 41.7946 11.4218C41.786 5.10949 36.0223 -0.00148331 28.9209 0.0060508C23.515 0.0118269 18.6906 3.02254 16.8481 7.54007C13.5492 6.37279 9.8103 7.8036 8.49702 10.736C8.38335 10.9898 8.2903 11.2505 8.21863 11.5161C2.95116 12.2163 -0.680279 16.5797 0.107506 21.2619C0.814016 25.4611 4.87245 28.5679 9.64908 28.5661H17.6854C18.5731 28.5661 19.2927 27.9264 19.2927 27.1374C19.2927 26.3483 18.5731 25.7087 17.6854 25.7087H9.64908C6.09834 25.7087 3.21994 23.1501 3.21994 19.9939C3.21994 16.8377 6.09834 14.2791 9.64908 14.2791C10.5368 14.2791 11.2564 13.6394 11.2564 12.8504C11.2593 11.2723 12.7009 9.99511 14.4762 9.9977C15.3158 9.99896 16.1215 10.2921 16.7211 10.8145C17.3533 11.3683 18.3709 11.3617 18.994 10.7997C19.2279 10.5887 19.3823 10.3183 19.4357 10.0258C20.3081 5.36029 25.2703 2.20685 30.519 2.98236C35.7678 3.75787 39.3154 8.16867 38.4429 12.8342C38.3909 13.1124 38.3234 13.3881 38.2408 13.6604C38.056 14.2567 38.324 14.891 38.9047 15.2319C41.8633 16.9769 42.6703 20.5235 40.7071 23.1534C39.5189 24.7452 37.5145 25.704 35.3654 25.7085H30.5436C29.6559 25.7085 28.9363 26.3481 28.9363 27.1372C28.9363 27.9263 29.6559 28.5659 30.5436 28.5659H35.3654C40.6915 28.5615 45.005 24.7199 45 19.9857C44.9973 17.4659 43.7474 15.0746 41.5824 13.4477Z" fill="white"/>
<path d="M33.2871 20.4117L25.2508 13.2683C25.1011 13.135 24.9229 13.0296 24.7268 12.9583C24.3336 12.8138 23.892 12.8138 23.4988 12.9583C23.3026 13.0296 23.1246 13.135 22.9748 13.2683L14.9385 20.4117C14.3218 20.9793 14.3395 21.8837 14.978 22.4319C15.6009 22.9665 16.5883 22.9665 17.2111 22.4319L22.5071 17.7272V38.566C22.5071 39.3551 23.2267 39.9947 24.1144 39.9947C25.0022 39.9947 25.7218 39.3551 25.7218 38.566V17.7272L31.0146 22.432C31.6531 22.9801 32.6706 22.9644 33.2872 22.3968C33.8887 21.8431 33.8887 20.9653 33.2871 20.4117Z" fill="white"/>
</svg>
